<svg width="20" height="21" viewBox="0 0 20 21" fill="#FF4A1A" xmlns="http://www.w3.org/2000/svg">
<path d="M12.4987 12.1668C10.2737 12.1668 5.83203 13.2752 5.83203 15.5002V17.1668H19.1654V15.5002C19.1654 13.2752 14.7237 12.1668 12.4987 12.1668ZM4.9987 8.8335V6.3335H3.33203V8.8335H0.832031V10.5002H3.33203V13.0002H4.9987V10.5002H7.4987V8.8335M12.4987 10.5002C13.3828 10.5002 14.2306 10.149 14.8557 9.52385C15.4808 8.89873 15.832 8.05088 15.832 7.16683C15.832 6.28277 15.4808 5.43493 14.8557 4.80981C14.2306 4.18469 13.3828 3.8335 12.4987 3.8335C11.6146 3.8335 10.7668 4.18469 10.1417 4.80981C9.51655 5.43493 9.16537 6.28277 9.16537 7.16683C9.16537 8.05088 9.51655 8.89873 10.1417 9.52385C10.7668 10.149 11.6146 10.5002 12.4987 10.5002Z" fill="#FF4A1A"/>
</svg>
