<svg width="28" height="28" viewBox="0 0 28 28" fill="none" xmlns="http://www.w3.org/2000/svg">
<rect width="28" height="28" rx="4" fill="#ECF3FF"/>
<path d="M8.16667 22.3337C7.70833 22.3337 7.31597 22.1705 6.98958 21.8441C6.66319 21.5177 6.5 21.1253 6.5 20.667V9.00032C6.5 8.54199 6.66319 8.14963 6.98958 7.82324C7.31597 7.49685 7.70833 7.33366 8.16667 7.33366H9V5.66699H10.6667V7.33366H17.3333V5.66699H19V7.33366H19.8333C20.2917 7.33366 20.684 7.49685 21.0104 7.82324C21.3368 8.14963 21.5 8.54199 21.5 9.00032V20.667C21.5 21.1253 21.3368 21.5177 21.0104 21.8441C20.684 22.1705 20.2917 22.3337 19.8333 22.3337H8.16667ZM8.16667 20.667H19.8333V12.3337H8.16667V20.667ZM8.16667 10.667H19.8333V9.00032H8.16667V10.667ZM14 15.667C13.7639 15.667 13.566 15.5871 13.4062 15.4274C13.2465 15.2677 13.1667 15.0698 13.1667 14.8337C13.1667 14.5975 13.2465 14.3996 13.4062 14.2399C13.566 14.0802 13.7639 14.0003 14 14.0003C14.2361 14.0003 14.434 14.0802 14.5938 14.2399C14.7535 14.3996 14.8333 14.5975 14.8333 14.8337C14.8333 15.0698 14.7535 15.2677 14.5938 15.4274C14.434 15.5871 14.2361 15.667 14 15.667ZM10.6667 15.667C10.4306 15.667 10.2326 15.5871 10.0729 15.4274C9.91319 15.2677 9.83333 15.0698 9.83333 14.8337C9.83333 14.5975 9.91319 14.3996 10.0729 14.2399C10.2326 14.0802 10.4306 14.0003 10.6667 14.0003C10.9028 14.0003 11.1007 14.0802 11.2604 14.2399C11.4201 14.3996 11.5 14.5975 11.5 14.8337C11.5 15.0698 11.4201 15.2677 11.2604 15.4274C11.1007 15.5871 10.9028 15.667 10.6667 15.667ZM17.3333 15.667C17.0972 15.667 16.8993 15.5871 16.7396 15.4274C16.5799 15.2677 16.5 15.0698 16.5 14.8337C16.5 14.5975 16.5799 14.3996 16.7396 14.2399C16.8993 14.0802 17.0972 14.0003 17.3333 14.0003C17.5694 14.0003 17.7674 14.0802 17.9271 14.2399C18.0868 14.3996 18.1667 14.5975 18.1667 14.8337C18.1667 15.0698 18.0868 15.2677 17.9271 15.4274C17.7674 15.5871 17.5694 15.667 17.3333 15.667ZM14 19.0003C13.7639 19.0003 13.566 18.9205 13.4062 18.7607C13.2465 18.601 13.1667 18.4031 13.1667 18.167C13.1667 17.9309 13.2465 17.733 13.4062 17.5732C13.566 17.4135 13.7639 17.3337 14 17.3337C14.2361 17.3337 14.434 17.4135 14.5938 17.5732C14.7535 17.733 14.8333 17.9309 14.8333 18.167C14.8333 18.4031 14.7535 18.601 14.5938 18.7607C14.434 18.9205 14.2361 19.0003 14 19.0003ZM10.6667 19.0003C10.4306 19.0003 10.2326 18.9205 10.0729 18.7607C9.91319 18.601 9.83333 18.4031 9.83333 18.167C9.83333 17.9309 9.91319 17.733 10.0729 17.5732C10.2326 17.4135 10.4306 17.3337 10.6667 17.3337C10.9028 17.3337 11.1007 17.4135 11.2604 17.5732C11.4201 17.733 11.5 17.9309 11.5 18.167C11.5 18.4031 11.4201 18.601 11.2604 18.7607C11.1007 18.9205 10.9028 19.0003 10.6667 19.0003ZM17.3333 19.0003C17.0972 19.0003 16.8993 18.9205 16.7396 18.7607C16.5799 18.601 16.5 18.4031 16.5 18.167C16.5 17.9309 16.5799 17.733 16.7396 17.5732C16.8993 17.4135 17.0972 17.3337 17.3333 17.3337C17.5694 17.3337 17.7674 17.4135 17.9271 17.5732C18.0868 17.733 18.1667 17.9309 18.1667 18.167C18.1667 18.4031 18.0868 18.601 17.9271 18.7607C17.7674 18.9205 17.5694 19.0003 17.3333 19.0003Z" fill="#0555D0"/>
</svg>
