<svg width="128" height="128" viewBox="0 0 128 128" fill="none" xmlns="http://www.w3.org/2000/svg">
<g id="Chart">
<path id="Ellipse 17" d="M64 0C77.2049 1.57467e-07 90.0865 4.08454 100.879 11.6936C111.671 19.3026 119.845 30.0636 124.281 42.5012L103.183 50.0258C100.299 41.9414 94.9861 34.9467 87.9712 30.0008C80.9562 25.0549 72.5832 22.4 64 22.4V0Z" fill="#165DFF"/>
<path id="Ellipse 18" d="M124.126 42.0711C127.655 51.7487 128.797 62.1353 127.453 72.3485C126.109 82.5616 122.32 92.2995 116.408 100.735C110.495 109.17 102.633 116.054 93.4911 120.8C84.3488 125.547 74.1957 128.017 63.8946 128L63.9315 105.6C70.6272 105.611 77.2267 104.006 83.1692 100.92C89.1117 97.8348 94.2217 93.3606 98.0649 87.8776C101.908 82.3947 104.371 76.065 105.245 69.4265C106.118 62.7879 105.376 56.0367 103.082 49.7462L124.126 42.0711Z" fill="#50CD89"/>
<path id="Ellipse 19" d="M64 128C50.4845 128 37.316 123.721 26.3817 115.777C15.4475 107.833 7.30888 96.631 3.13237 83.7771L24.436 76.8551C27.1508 85.2102 32.4409 92.4914 39.5481 97.6551C46.6554 102.819 55.2149 105.6 64 105.6L64 128Z" fill="#50CD89"/>
<path id="Ellipse 20" d="M3.15684 83.8522C-1.03553 71.0034 -1.05262 57.1572 3.10802 44.298L24.4202 51.1937C21.7158 59.5522 21.7269 68.5522 24.4519 76.9039L3.15684 83.8522Z" fill="#50CD89"/>
<path id="Ellipse 21" d="M3.11766 44.2683C7.2846 31.4112 15.4149 20.2033 26.3432 12.2509L39.5231 30.3631C32.4197 35.5321 27.135 42.8173 24.4265 51.1744L3.11766 44.2683Z" fill="#50CD89"/>
<path id="Ellipse 22" d="M26.3336 12.258C37.2604 4.30359 50.4249 0.012614 63.9404 2.77513e-05L63.9613 22.4C55.1762 22.4082 46.6193 25.1973 39.5168 30.3677L26.3336 12.258Z" fill="#165DFF"/>
</g>
</svg>
