<svg width="23" height="22" viewBox="0 0 23 22" fill="none" xmlns="http://www.w3.org/2000/svg">
<path d="M5.2513 17.4167H6.55755L15.518 8.45625L14.2117 7.15L5.2513 16.1104V17.4167ZM3.41797 19.25V15.3542L15.518 3.27708C15.7013 3.10903 15.9037 2.97917 16.1253 2.8875C16.3468 2.79583 16.5798 2.75 16.8242 2.75C17.0687 2.75 17.3055 2.79583 17.5346 2.8875C17.7638 2.97917 17.9624 3.11667 18.1305 3.3L19.3909 4.58333C19.5742 4.75139 19.7079 4.95 19.7919 5.17917C19.876 5.40833 19.918 5.6375 19.918 5.86667C19.918 6.11111 19.876 6.3441 19.7919 6.56563C19.7079 6.78715 19.5742 6.98958 19.3909 7.17292L7.3138 19.25H3.41797ZM14.8534 7.81458L14.2117 7.15L15.518 8.45625L14.8534 7.81458Z" fill="#424242"/>
</svg>
