<svg width="20" height="20" viewBox="0 0 20 20" fill="none" xmlns="http://www.w3.org/2000/svg">
<g id="sort 1">
<g id="Group">
<path id="Vector" d="M14.9974 10.8337H4.9974C4.4974 10.8337 4.16406 10.5003 4.16406 10.0003C4.16406 9.50033 4.4974 9.16699 4.9974 9.16699H14.9974C15.4974 9.16699 15.8307 9.50033 15.8307 10.0003C15.8307 10.5003 15.4974 10.8337 14.9974 10.8337Z" fill="#0555D0"/>
</g>
<g id="Group_2">
<path id="Vector_2" d="M12.4974 15.8337H7.4974C6.9974 15.8337 6.66406 15.5003 6.66406 15.0003C6.66406 14.5003 6.9974 14.167 7.4974 14.167H12.4974C12.9974 14.167 13.3307 14.5003 13.3307 15.0003C13.3307 15.5003 12.9974 15.8337 12.4974 15.8337Z" fill="#0555D0"/>
</g>
<g id="Group_3">
<path id="Vector_3" d="M17.4974 5.83366H2.4974C1.9974 5.83366 1.66406 5.50033 1.66406 5.00033C1.66406 4.50033 1.9974 4.16699 2.4974 4.16699H17.4974C17.9974 4.16699 18.3307 4.50033 18.3307 5.00033C18.3307 5.50033 17.9974 5.83366 17.4974 5.83366Z" fill="#0555D0"/>
</g>
</g>
</svg>
