<?xml version="1.0" encoding="UTF-8"?>
<svg id="Layer_2" data-name="Layer 2" xmlns="http://www.w3.org/2000/svg" viewBox="0 0 103.69 103.56">
  <g id="Layer_1-2" data-name="Layer 1">
    <g>
      <path d="M21.82,74.2c1.41-5.23,2.77-10.23,4.12-15.24,1.46-5.43,2.94-10.85,4.37-16.29.23-.87.58-1.18,1.53-1.17,4.15.06,8.31.03,12.58.03-1,3.71-1.96,7.32-2.93,10.92-2.75,10.16-5.48,20.32-8.27,30.47-.27.97-.03,1.37.81,1.82,18.47,9.97,41.65,2.72,51.14-16.05.49-.97,1.06-1.41,2.13-1.47,4.35-.23,8.69-.5,13.03-.81.99-.07,1.14.14.84,1.07-3.17,9.71-8.65,17.86-16.55,24.32-9.7,7.94-20.9,11.84-33.42,11.75-24.69-.17-46.13-18.32-50.39-42.54C-4,33.72,13.03,7.8,40.05,1.35,45.57.03,51.17-.29,56.83.26c.73.07.83.24.63.93-1.21,4.13-2.4,8.27-3.52,12.43-.25.93-.83.78-1.45.77-9.06-.15-17.22,2.52-24.17,8.29-10.45,8.66-15,19.89-13.68,33.42.62,6.33,2.92,12.06,6.56,17.26.16.22.33.44.62.85Z" fill="#fff" stroke-width="0"/>
      <path d="M82.33,67.72c.09.32-.12.54-.25.78-2.77,5.16-6.56,9.41-11.34,12.8-.51.36-1.04.5-1.66.54-9.17.59-18.33,1.22-27.5,1.83-.96.06-1.93.01-2.87.17-.95.16-.96-.17-.74-.92,1.14-4.01,2.26-8.03,3.36-12.06,4.7-17.23,9.38-34.46,14.09-51.69,1.59-5.8,3.24-11.59,4.83-17.39.22-.81.48-1.03,1.38-.85,3.53.72,6.95,1.77,10.29,3.12.92.37,1.14.73.87,1.74-5.66,20.76-11.27,41.53-16.89,62.3-.35,1.29-.34,1.3,1,1.21,7.81-.53,15.62-1.06,23.43-1.58.67-.04,1.34,0,2.01,0Z" fill="#5fb038" stroke-width="0"/>
      <path d="M82.84,55c-6.47.21-12.93.4-19.4.65-1.03.04-1.27-.12-.96-1.19,1.1-3.75,2.12-7.52,3.12-11.29.19-.7.48-.93,1.21-.94,6.63-.14,13.26-.34,19.88-.46,1.06-.02,1.15-.32.85-1.21-2.71-8.25-7.6-14.86-14.78-19.76-.75-.51-.94-.94-.68-1.82,1.14-3.94,2.23-7.9,3.26-11.87.29-1.1.61-1.19,1.57-.63,13.45,7.77,21.97,19.19,25.5,34.31.97,4.13,1.29,8.35,1.27,12.59,0,.84-.27,1.06-1.09,1.08-6.59.16-13.18.36-19.76.55Z" fill="#fff" stroke-width="0"/>
      <path d="M49.66,21.89c-1.16,4.3-2.28,8.49-3.41,12.67-.32,1.19-.63,2.39-.97,3.57-.1.35-.11.77-.7.77-4.38-.02-8.77-.01-13.27-.01.98-3.65,1.92-7.18,2.87-10.72.5-1.85,1.01-3.69,1.51-5.53.1-.38.12-.77.7-.77,4.38.02,8.77,0,13.26,0Z" fill="#5fb038" stroke-width="0"/>
    </g>
  </g>
</svg>