<svg width="48" height="48" viewBox="0 0 48 48" fill="none" xmlns="http://www.w3.org/2000/svg">
<rect width="48" height="48" fill="#F5F5F5"/>
<g id="Project">
<g clip-path="url(#clip0_18_2442)">
<rect x="-1201" y="-20" width="1440" height="1579" rx="4" fill="white"/>
<rect id="Rectangle 2005" x="-921" y="-20" width="1160" height="88" fill="#F5F9FF"/>
<g id="Frame 1000008007">
<g id="Frame 4">
<g id="Frame 3">
<g id="man 1" clip-path="url(#clip1_18_2442)">
<path id="Vector" d="M24 48C37.2548 48 48 37.2548 48 24C48 10.7452 37.2548 0 24 0C10.7452 0 0 10.7452 0 24C0 37.2548 10.7452 48 24 48Z" fill="#0061F6"/>
<g id="Group">
<path id="Vector_2" d="M24.1135 34.2803C24.0757 34.2803 24.0379 34.3181 24.0001 34.3181C23.9623 34.3181 23.9245 34.2803 23.8867 34.2803H24.1135Z" fill="#84DBFF"/>
<path id="Vector_3" d="M42.6333 39.1177C38.2491 44.5225 31.5215 47.9996 24.0003 47.9996C16.479 47.9996 9.75144 44.5225 5.36719 39.1177C8.5042 34.9225 13.3042 32.8437 17.2349 31.8232C16.9325 34.3177 18.2176 37.6437 18.2554 37.5681C19.5782 34.5445 24.0003 34.2799 24.0003 34.2799C24.0003 34.2799 28.4223 34.5445 29.7073 37.5681C29.7451 37.6437 31.068 34.3177 30.7278 31.8232C34.6963 32.8437 39.5341 34.9225 42.6333 39.1177Z" fill="#84DBFF"/>
</g>
<path id="Vector_4" d="M29.4032 29.4799C29.4032 29.4799 29.4032 29.4799 29.4032 29.5177C29.4032 29.8956 29.2142 32.3145 24.1119 34.2421H23.8851C18.7827 32.3145 18.5938 29.8956 18.5938 29.5177C18.5938 29.4799 18.5938 29.4799 18.5938 29.4799C18.5938 28.9885 18.7071 28.4972 18.8205 28.0059C20.2945 29.8578 22.0709 31.1051 23.9985 31.1051C25.926 31.1051 27.7024 29.8578 29.1764 28.0059C29.2898 28.4972 29.4032 28.9885 29.4032 29.4799Z" fill="white"/>
<g id="Group_2">
<path id="Vector_5" d="M29.4047 29.4805C29.4047 29.4805 29.6693 32.2017 24 34.3183C24 34.3183 28.422 34.5828 29.7071 37.6065C29.7827 37.682 32.315 31.1057 29.4047 29.4805Z" fill="#54C0EB"/>
<path id="Vector_6" d="M18.5948 29.4805C15.6846 31.1057 18.2169 37.682 18.2925 37.5687C19.6153 34.545 23.9996 34.2805 23.9996 34.2805C18.3303 32.2017 18.5948 29.4805 18.5948 29.4805Z" fill="#54C0EB"/>
</g>
<g id="Group_3">
<path id="Vector_7" d="M31.9364 19.9178C31.5962 22.2611 30.5757 24.4532 28.875 26.1162C28.5348 26.4564 28.2324 26.721 27.8545 26.9855L27.2498 25.058H20.749L20.1442 26.9855C18.9348 26.0784 16.4025 23.5462 16.3647 21.1651C15.3065 7.59656 25.7002 10.469 25.7002 10.469C32.6923 9.97766 32.4655 16.1383 31.9364 19.9178Z" fill="white"/>
<path id="Vector_8" d="M33.3338 22.3744C32.8047 23.2437 32.0866 23.8485 31.4062 24.0752C31.6708 23.4705 31.8976 22.828 32.0866 22.1855C32.0866 22.1855 32.0866 22.1855 32.0866 22.1477C32.2377 21.5807 32.3889 21.0138 32.5401 20.4469H32.5023C32.6535 19.88 32.8047 19.313 32.9181 18.7461C33.0692 18.7461 33.2204 18.8217 33.3716 18.8973C34.2031 19.4264 34.1653 20.976 33.3338 22.3744Z" fill="white"/>
<path id="Vector_9" d="M16.5921 24.0751C15.9118 23.8484 15.1937 23.2436 14.6646 22.3743C13.7953 20.9759 13.7953 19.4263 14.6268 18.935C14.7024 18.8972 14.7402 18.8594 14.8158 18.8594C15.2693 20.6358 15.7984 21.9586 15.9118 22.2232C16.1008 22.8279 16.3276 23.4704 16.5921 24.0751Z" fill="white"/>
</g>
<path id="SVGCleanerId_0" d="M28.1201 6.68994C28.4225 3.21277 22.9044 3.43954 22.9044 3.43954C14.5516 4.64899 13.6445 12.4348 13.6445 12.4348L14.7784 11.0742C13.002 14.9671 15.6855 21.6569 15.9122 22.186C17.3107 26.8348 20.4099 31.1057 24.0004 31.1057C27.591 31.1057 30.6902 26.8348 32.0886 22.186C32.0886 22.186 32.0886 22.186 32.0886 22.1482C32.2398 21.5813 32.391 21.0143 32.5044 20.4474H32.4666C33.2225 17.4238 34.054 14.3624 34.054 14.3624C36.2083 3.51513 28.1201 6.68994 28.1201 6.68994ZM31.9374 19.9183C31.5973 22.2616 30.5768 24.4537 28.876 26.1167C28.5359 26.4569 28.1957 26.7214 27.8556 26.986L27.2508 25.0962H20.75L20.1453 27.0238C18.9359 26.1167 17.9154 24.8695 17.0839 23.4332C16.7059 22.6773 16.4792 21.8836 16.3658 21.2033C15.3075 7.63482 25.7012 10.5073 25.7012 10.5073C32.6933 9.97812 32.4666 16.1388 31.9374 19.9183Z" fill="#324A5E"/>
<g id="Group_4">
<path id="SVGCleanerId_0_1_" d="M28.1201 6.68994C28.4225 3.21277 22.9044 3.43954 22.9044 3.43954C14.5516 4.64899 13.6445 12.4348 13.6445 12.4348L14.7784 11.0742C13.002 14.9671 15.6855 21.6569 15.9122 22.186C17.3107 26.8348 20.4099 31.1057 24.0004 31.1057C27.591 31.1057 30.6902 26.8348 32.0886 22.186C32.0886 22.186 32.0886 22.186 32.0886 22.1482C32.2398 21.5813 32.391 21.0143 32.5044 20.4474H32.4666C33.2225 17.4238 34.054 14.3624 34.054 14.3624C36.2083 3.51513 28.1201 6.68994 28.1201 6.68994ZM31.9374 19.9183C31.5973 22.2616 30.5768 24.4537 28.876 26.1167C28.5359 26.4569 28.1957 26.7214 27.8556 26.986L27.2508 25.0962H20.75L20.1453 27.0238C18.9359 26.1167 17.9154 24.8695 17.0839 23.4332C16.7059 22.6773 16.4792 21.8836 16.3658 21.2033C15.3075 7.63482 25.7012 10.5073 25.7012 10.5073C32.6933 9.97812 32.4666 16.1388 31.9374 19.9183Z" fill="#324A5E"/>
</g>
<path id="Vector_10" d="M28.1201 6.68994C28.4225 3.21277 22.9044 3.43954 22.9044 3.43954C14.5516 4.64899 13.6445 12.4348 13.6445 12.4348L14.7784 11.0742C13.002 14.9671 15.6855 21.6569 15.9122 22.186C17.3107 26.8348 20.4099 31.1057 24.0004 31.1057C27.591 31.1057 30.6902 26.8348 32.0886 22.186C32.0886 22.186 32.0886 22.186 32.0886 22.1482C32.2398 21.5813 32.391 21.0143 32.5044 20.4474H32.4666C33.2225 17.4238 34.054 14.3624 34.054 14.3624C36.2083 3.51513 28.1201 6.68994 28.1201 6.68994ZM31.9374 19.9183C31.5973 22.2616 30.5768 24.4537 28.876 26.1167C28.5359 26.4569 28.1957 26.7214 27.8556 26.986L27.2508 25.0962H20.75L20.1453 27.0238C18.9359 26.1167 16.4036 23.5844 16.3658 21.2033C15.3075 7.63482 25.7012 10.5073 25.7012 10.5073C32.6933 9.97812 32.4666 16.1388 31.9374 19.9183Z" fill="#324A5E"/>
<path id="Vector_11" d="M21.3555 26.3809C21.998 27.099 22.9429 27.5903 24.0011 27.5903C25.0594 27.5903 26.0043 27.1368 26.6468 26.3809H21.3555Z" fill="white"/>
</g>
</g>
</g>
</g>
</g>
</g>
<defs>
<clipPath id="clip0_18_2442">
<rect x="-1201" y="-20" width="1440" height="1579" rx="4" fill="white"/>
</clipPath>
<clipPath id="clip1_18_2442">
<rect width="48" height="48" fill="white"/>
</clipPath>
</defs>
</svg>
