<svg xmlns="http://www.w3.org/2000/svg" width="24" height="24" viewBox="0 0 24 24" fill="none">
  <path d="M16 10.9995C17.66 10.9995 18.99 9.65951 18.99 7.99951C18.99 6.33951 17.66 4.99951 16 4.99951C14.34 4.99951 13 6.33951 13 7.99951C13 9.65951 14.34 10.9995 16 10.9995ZM8 10.9995C9.66 10.9995 10.99 9.65951 10.99 7.99951C10.99 6.33951 9.66 4.99951 8 4.99951C6.34 4.99951 5 6.33951 5 7.99951C5 9.65951 6.34 10.9995 8 10.9995ZM8 12.9995C5.67 12.9995 1 14.1695 1 16.4995V18.9995H15V16.4995C15 14.1695 10.33 12.9995 8 12.9995ZM16 12.9995C15.71 12.9995 15.38 13.0195 15.03 13.0495C16.19 13.8895 17 15.0195 17 16.4995V18.9995H23V16.4995C23 14.1695 18.33 12.9995 16 12.9995Z" fill="white"/>
</svg>