<svg width="36" height="36" viewBox="0 0 36 36" fill="none" xmlns="http://www.w3.org/2000/svg">
<rect width="36" height="36" rx="18" fill="#FF4A1A"/>
<path d="M9.66406 16.3333C9.66406 14.9444 9.97309 13.6701 10.5911 12.5104C11.2092 11.3507 12.0391 10.3889 13.0807 9.625L14.0599 10.9583C13.2266 11.5694 12.5634 12.3403 12.0703 13.2708C11.5773 14.2014 11.3307 15.2222 11.3307 16.3333H9.66406ZM24.6641 16.3333C24.6641 15.2222 24.4175 14.2014 23.9245 13.2708C23.4314 12.3403 22.7682 11.5694 21.9349 10.9583L22.9141 9.625C23.9557 10.3889 24.7856 11.3507 25.4036 12.5104C26.0217 13.6701 26.3307 14.9444 26.3307 16.3333H24.6641ZM11.3307 23.8333V22.1667H12.9974V16.3333C12.9974 15.1806 13.3446 14.1562 14.0391 13.2604C14.7335 12.3646 15.6363 11.7778 16.7474 11.5V10.9167C16.7474 10.5694 16.8689 10.2743 17.112 10.0312C17.355 9.78819 17.6502 9.66667 17.9974 9.66667C18.3446 9.66667 18.6398 9.78819 18.8828 10.0312C19.1259 10.2743 19.2474 10.5694 19.2474 10.9167V11.5C20.3585 11.7778 21.2613 12.3646 21.9557 13.2604C22.6502 14.1562 22.9974 15.1806 22.9974 16.3333V22.1667H24.6641V23.8333H11.3307ZM17.9974 26.3333C17.5391 26.3333 17.1467 26.1701 16.8203 25.8438C16.4939 25.5174 16.3307 25.125 16.3307 24.6667H19.6641C19.6641 25.125 19.5009 25.5174 19.1745 25.8438C18.8481 26.1701 18.4557 26.3333 17.9974 26.3333ZM14.6641 22.1667H21.3307V16.3333C21.3307 15.4167 21.0043 14.6319 20.3516 13.9792C19.6988 13.3264 18.9141 13 17.9974 13C17.0807 13 16.296 13.3264 15.6432 13.9792C14.9904 14.6319 14.6641 15.4167 14.6641 16.3333V22.1667Z" fill="white"/>
</svg>
