<svg width="200" height="48" viewBox="0 0 200 48" fill="none" xmlns="http://www.w3.org/2000/svg">
<rect x="0.5" y="0.5" width="199" height="47" rx="23.5" stroke="#111113" stroke-opacity="0.2"/>
<rect x="16" y="12" width="24" height="24" rx="4" fill="#0061F6"/>
<path d="M24.9987 27.6668C23.9765 27.6668 23.1098 27.3113 22.3987 26.6002C21.6876 25.8891 21.332 25.0224 21.332 24.0002C21.332 22.9779 21.6876 22.1113 22.3987 21.4002C23.1098 20.6891 23.9765 20.3335 24.9987 20.3335H31.9987C32.732 20.3335 33.3598 20.5946 33.882 21.1168C34.4043 21.6391 34.6654 22.2668 34.6654 23.0002C34.6654 23.7335 34.4043 24.3613 33.882 24.8835C33.3598 25.4057 32.732 25.6668 31.9987 25.6668H25.6654C25.1987 25.6668 24.8043 25.5057 24.482 25.1835C24.1598 24.8613 23.9987 24.4668 23.9987 24.0002C23.9987 23.5335 24.1598 23.1391 24.482 22.8168C24.8043 22.4946 25.1987 22.3335 25.6654 22.3335H31.9987V23.3335H25.6654C25.4765 23.3335 25.3181 23.3974 25.1904 23.5252C25.0626 23.6529 24.9987 23.8113 24.9987 24.0002C24.9987 24.1891 25.0626 24.3474 25.1904 24.4752C25.3181 24.6029 25.4765 24.6668 25.6654 24.6668H31.9987C32.4654 24.6668 32.8598 24.5057 33.182 24.1835C33.5042 23.8613 33.6654 23.4668 33.6654 23.0002C33.6654 22.5335 33.5042 22.1391 33.182 21.8168C32.8598 21.4946 32.4654 21.3335 31.9987 21.3335H24.9987C24.2654 21.3335 23.6376 21.5946 23.1154 22.1168C22.5931 22.6391 22.332 23.2668 22.332 24.0002C22.332 24.7335 22.5931 25.3613 23.1154 25.8835C23.6376 26.4057 24.2654 26.6668 24.9987 26.6668H31.9987V27.6668H24.9987Z" fill="white"/>
<path d="M53.5156 24.5391H50.4766V23.3125H53.5156C54.1042 23.3125 54.5807 23.2188 54.9453 23.0312C55.3099 22.8438 55.5755 22.5833 55.7422 22.25C55.9141 21.9167 56 21.5365 56 21.1094C56 20.7188 55.9141 20.3516 55.7422 20.0078C55.5755 19.6641 55.3099 19.388 54.9453 19.1797C54.5807 18.9661 54.1042 18.8594 53.5156 18.8594H50.8281V29H49.3203V17.625H53.5156C54.375 17.625 55.1016 17.7734 55.6953 18.0703C56.2891 18.3672 56.7396 18.7786 57.0469 19.3047C57.3542 19.8255 57.5078 20.4219 57.5078 21.0938C57.5078 21.8229 57.3542 22.4453 57.0469 22.9609C56.7396 23.4766 56.2891 23.8698 55.6953 24.1406C55.1016 24.4062 54.375 24.5391 53.5156 24.5391ZM62.5938 29.1562C62.0052 29.1562 61.4714 29.0573 60.9922 28.8594C60.5182 28.6562 60.1094 28.3724 59.7656 28.0078C59.4271 27.6432 59.1667 27.2109 58.9844 26.7109C58.8021 26.2109 58.7109 25.6641 58.7109 25.0703V24.7422C58.7109 24.0547 58.8125 23.4427 59.0156 22.9062C59.2188 22.3646 59.4948 21.9062 59.8438 21.5312C60.1927 21.1562 60.5885 20.8724 61.0312 20.6797C61.474 20.487 61.9323 20.3906 62.4062 20.3906C63.0104 20.3906 63.5312 20.4948 63.9688 20.7031C64.4115 20.9115 64.7734 21.2031 65.0547 21.5781C65.3359 21.9479 65.5443 22.3854 65.6797 22.8906C65.8151 23.3906 65.8828 23.9375 65.8828 24.5312V25.1797H59.5703V24H64.4375V23.8906C64.4167 23.5156 64.3385 23.151 64.2031 22.7969C64.0729 22.4427 63.8646 22.151 63.5781 21.9219C63.2917 21.6927 62.901 21.5781 62.4062 21.5781C62.0781 21.5781 61.776 21.6484 61.5 21.7891C61.224 21.9245 60.987 22.1276 60.7891 22.3984C60.5911 22.6693 60.4375 23 60.3281 23.3906C60.2188 23.7812 60.1641 24.2318 60.1641 24.7422V25.0703C60.1641 25.4714 60.2188 25.849 60.3281 26.2031C60.4427 26.5521 60.6068 26.8594 60.8203 27.125C61.0391 27.3906 61.3021 27.599 61.6094 27.75C61.9219 27.901 62.276 27.9766 62.6719 27.9766C63.1823 27.9766 63.6146 27.8724 63.9688 27.6641C64.3229 27.4557 64.6328 27.1771 64.8984 26.8281L65.7734 27.5234C65.5911 27.7995 65.3594 28.0625 65.0781 28.3125C64.7969 28.5625 64.4505 28.7656 64.0391 28.9219C63.6328 29.0781 63.151 29.1562 62.5938 29.1562ZM71.1094 20.5469V21.6562H66.5391V20.5469H71.1094ZM68.0859 18.4922H69.5312V26.9062C69.5312 27.1927 69.5755 27.4089 69.6641 27.5547C69.7526 27.7005 69.8672 27.7969 70.0078 27.8438C70.1484 27.8906 70.2995 27.9141 70.4609 27.9141C70.5807 27.9141 70.7057 27.9036 70.8359 27.8828C70.9714 27.8568 71.0729 27.8359 71.1406 27.8203L71.1484 29C71.0339 29.0365 70.8828 29.0703 70.6953 29.1016C70.513 29.138 70.2917 29.1562 70.0312 29.1562C69.6771 29.1562 69.3516 29.0859 69.0547 28.9453C68.7578 28.8047 68.5208 28.5703 68.3438 28.2422C68.1719 27.9089 68.0859 27.4609 68.0859 26.8984V18.4922ZM74.25 21.875V29H72.8047V20.5469H74.2109L74.25 21.875ZM76.8906 20.5L76.8828 21.8438C76.763 21.8177 76.6484 21.8021 76.5391 21.7969C76.4349 21.7865 76.3151 21.7812 76.1797 21.7812C75.8464 21.7812 75.5521 21.8333 75.2969 21.9375C75.0417 22.0417 74.8255 22.1875 74.6484 22.375C74.4714 22.5625 74.3307 22.7865 74.2266 23.0469C74.1276 23.3021 74.0625 23.5833 74.0312 23.8906L73.625 24.125C73.625 23.6146 73.6745 23.1354 73.7734 22.6875C73.8776 22.2396 74.0365 21.8438 74.25 21.5C74.4635 21.151 74.7344 20.8802 75.0625 20.6875C75.3958 20.4896 75.7917 20.3906 76.25 20.3906C76.3542 20.3906 76.474 20.4036 76.6094 20.4297C76.7448 20.4505 76.8385 20.474 76.8906 20.5ZM77.6875 24.8672V24.6875C77.6875 24.0781 77.776 23.513 77.9531 22.9922C78.1302 22.4661 78.3854 22.0104 78.7188 21.625C79.0521 21.2344 79.4557 20.9323 79.9297 20.7188C80.4036 20.5 80.9349 20.3906 81.5234 20.3906C82.1172 20.3906 82.651 20.5 83.125 20.7188C83.6042 20.9323 84.0104 21.2344 84.3438 21.625C84.6823 22.0104 84.9401 22.4661 85.1172 22.9922C85.2943 23.513 85.3828 24.0781 85.3828 24.6875V24.8672C85.3828 25.4766 85.2943 26.0417 85.1172 26.5625C84.9401 27.0833 84.6823 27.5391 84.3438 27.9297C84.0104 28.3151 83.6068 28.6172 83.1328 28.8359C82.6641 29.0495 82.1328 29.1562 81.5391 29.1562C80.9453 29.1562 80.4115 29.0495 79.9375 28.8359C79.4635 28.6172 79.0573 28.3151 78.7188 27.9297C78.3854 27.5391 78.1302 27.0833 77.9531 26.5625C77.776 26.0417 77.6875 25.4766 77.6875 24.8672ZM79.1328 24.6875V24.8672C79.1328 25.2891 79.1823 25.6875 79.2812 26.0625C79.3802 26.4323 79.5286 26.7604 79.7266 27.0469C79.9297 27.3333 80.1823 27.5599 80.4844 27.7266C80.7865 27.888 81.138 27.9688 81.5391 27.9688C81.9349 27.9688 82.2812 27.888 82.5781 27.7266C82.8802 27.5599 83.1302 27.3333 83.3281 27.0469C83.526 26.7604 83.6745 26.4323 83.7734 26.0625C83.8776 25.6875 83.9297 25.2891 83.9297 24.8672V24.6875C83.9297 24.2708 83.8776 23.8776 83.7734 23.5078C83.6745 23.1328 83.5234 22.8021 83.3203 22.5156C83.1224 22.224 82.8724 21.9948 82.5703 21.8281C82.2734 21.6615 81.9245 21.5781 81.5234 21.5781C81.1276 21.5781 80.7786 21.6615 80.4766 21.8281C80.1797 21.9948 79.9297 22.224 79.7266 22.5156C79.5286 22.8021 79.3802 23.1328 79.2812 23.5078C79.1823 23.8776 79.1328 24.2708 79.1328 24.6875ZM88.7656 17V29H87.3125V17H88.7656ZM96.5 22.1719V32.25H95.0469V20.5469H96.375L96.5 22.1719ZM102.195 24.7031V24.8672C102.195 25.4818 102.122 26.0521 101.977 26.5781C101.831 27.099 101.617 27.5521 101.336 27.9375C101.06 28.3229 100.719 28.6224 100.312 28.8359C99.9062 29.0495 99.4401 29.1562 98.9141 29.1562C98.3776 29.1562 97.9036 29.0677 97.4922 28.8906C97.0807 28.7135 96.7318 28.4557 96.4453 28.1172C96.1589 27.7786 95.9297 27.3724 95.7578 26.8984C95.5911 26.4245 95.4766 25.8906 95.4141 25.2969V24.4219C95.4766 23.7969 95.5938 23.237 95.7656 22.7422C95.9375 22.2474 96.1641 21.8255 96.4453 21.4766C96.7318 21.1224 97.0781 20.8542 97.4844 20.6719C97.8906 20.4844 98.3594 20.3906 98.8906 20.3906C99.4219 20.3906 99.8932 20.4948 100.305 20.7031C100.716 20.9062 101.062 21.1979 101.344 21.5781C101.625 21.9583 101.836 22.4141 101.977 22.9453C102.122 23.4714 102.195 24.0573 102.195 24.7031ZM100.742 24.8672V24.7031C100.742 24.2812 100.698 23.8854 100.609 23.5156C100.521 23.1406 100.383 22.8125 100.195 22.5312C100.013 22.2448 99.7786 22.0208 99.4922 21.8594C99.2057 21.6927 98.8646 21.6094 98.4688 21.6094C98.1042 21.6094 97.7865 21.6719 97.5156 21.7969C97.25 21.9219 97.0234 22.0911 96.8359 22.3047C96.6484 22.513 96.4948 22.7526 96.375 23.0234C96.2604 23.2891 96.1745 23.5651 96.1172 23.8516V25.875C96.2214 26.2396 96.3672 26.5833 96.5547 26.9062C96.7422 27.224 96.9922 27.4818 97.3047 27.6797C97.6172 27.8724 98.0104 27.9688 98.4844 27.9688C98.875 27.9688 99.2109 27.888 99.4922 27.7266C99.7786 27.5599 100.013 27.3333 100.195 27.0469C100.383 26.7604 100.521 26.4323 100.609 26.0625C100.698 25.6875 100.742 25.2891 100.742 24.8672ZM109.211 27.0469V20.5469H110.664V29H109.281L109.211 27.0469ZM109.484 25.2656L110.086 25.25C110.086 25.8125 110.026 26.3333 109.906 26.8125C109.792 27.2865 109.604 27.6979 109.344 28.0469C109.083 28.3958 108.742 28.6693 108.32 28.8672C107.898 29.0599 107.385 29.1562 106.781 29.1562C106.37 29.1562 105.992 29.0964 105.648 28.9766C105.31 28.8568 105.018 28.6719 104.773 28.4219C104.529 28.1719 104.339 27.8464 104.203 27.4453C104.073 27.0443 104.008 26.5625 104.008 26V20.5469H105.453V26.0156C105.453 26.3958 105.495 26.7109 105.578 26.9609C105.667 27.2057 105.784 27.401 105.93 27.5469C106.081 27.6875 106.247 27.7865 106.43 27.8438C106.617 27.901 106.81 27.9297 107.008 27.9297C107.622 27.9297 108.109 27.8125 108.469 27.5781C108.828 27.3385 109.086 27.0182 109.242 26.6172C109.404 26.2109 109.484 25.7604 109.484 25.2656ZM114.305 22.2266V29H112.852V20.5469H114.227L114.305 22.2266ZM114.008 24.4531L113.336 24.4297C113.341 23.8516 113.417 23.3177 113.562 22.8281C113.708 22.3333 113.924 21.9036 114.211 21.5391C114.497 21.1745 114.854 20.8932 115.281 20.6953C115.708 20.4922 116.203 20.3906 116.766 20.3906C117.161 20.3906 117.526 20.4479 117.859 20.5625C118.193 20.6719 118.482 20.8464 118.727 21.0859C118.971 21.3255 119.161 21.6328 119.297 22.0078C119.432 22.3828 119.5 22.8359 119.5 23.3672V29H118.055V23.4375C118.055 22.9948 117.979 22.6406 117.828 22.375C117.682 22.1094 117.474 21.9167 117.203 21.7969C116.932 21.6719 116.615 21.6094 116.25 21.6094C115.823 21.6094 115.466 21.6849 115.18 21.8359C114.893 21.987 114.664 22.1953 114.492 22.4609C114.32 22.7266 114.195 23.0312 114.117 23.375C114.044 23.7135 114.008 24.0729 114.008 24.4531ZM119.484 23.6562L118.516 23.9531C118.521 23.4896 118.596 23.0443 118.742 22.6172C118.893 22.1901 119.109 21.8099 119.391 21.4766C119.677 21.1432 120.029 20.8802 120.445 20.6875C120.862 20.4896 121.339 20.3906 121.875 20.3906C122.328 20.3906 122.729 20.4505 123.078 20.5703C123.432 20.6901 123.729 20.875 123.969 21.125C124.214 21.3698 124.398 21.6849 124.523 22.0703C124.648 22.4557 124.711 22.9141 124.711 23.4453V29H123.258V23.4297C123.258 22.9557 123.182 22.5885 123.031 22.3281C122.885 22.0625 122.677 21.8776 122.406 21.7734C122.141 21.6641 121.823 21.6094 121.453 21.6094C121.135 21.6094 120.854 21.6641 120.609 21.7734C120.365 21.8828 120.159 22.0339 119.992 22.2266C119.826 22.4141 119.698 22.6302 119.609 22.875C119.526 23.1198 119.484 23.3802 119.484 23.6562ZM128.344 22.1719V32.25H126.891V20.5469H128.219L128.344 22.1719ZM134.039 24.7031V24.8672C134.039 25.4818 133.966 26.0521 133.82 26.5781C133.674 27.099 133.461 27.5521 133.18 27.9375C132.904 28.3229 132.562 28.6224 132.156 28.8359C131.75 29.0495 131.284 29.1562 130.758 29.1562C130.221 29.1562 129.747 29.0677 129.336 28.8906C128.924 28.7135 128.576 28.4557 128.289 28.1172C128.003 27.7786 127.773 27.3724 127.602 26.8984C127.435 26.4245 127.32 25.8906 127.258 25.2969V24.4219C127.32 23.7969 127.438 23.237 127.609 22.7422C127.781 22.2474 128.008 21.8255 128.289 21.4766C128.576 21.1224 128.922 20.8542 129.328 20.6719C129.734 20.4844 130.203 20.3906 130.734 20.3906C131.266 20.3906 131.737 20.4948 132.148 20.7031C132.56 20.9062 132.906 21.1979 133.188 21.5781C133.469 21.9583 133.68 22.4141 133.82 22.9453C133.966 23.4714 134.039 24.0573 134.039 24.7031ZM132.586 24.8672V24.7031C132.586 24.2812 132.542 23.8854 132.453 23.5156C132.365 23.1406 132.227 22.8125 132.039 22.5312C131.857 22.2448 131.622 22.0208 131.336 21.8594C131.049 21.6927 130.708 21.6094 130.312 21.6094C129.948 21.6094 129.63 21.6719 129.359 21.7969C129.094 21.9219 128.867 22.0911 128.68 22.3047C128.492 22.513 128.339 22.7526 128.219 23.0234C128.104 23.2891 128.018 23.5651 127.961 23.8516V25.875C128.065 26.2396 128.211 26.5833 128.398 26.9062C128.586 27.224 128.836 27.4818 129.148 27.6797C129.461 27.8724 129.854 27.9688 130.328 27.9688C130.719 27.9688 131.055 27.888 131.336 27.7266C131.622 27.5599 131.857 27.3333 132.039 27.0469C132.227 26.7604 132.365 26.4323 132.453 26.0625C132.542 25.6875 132.586 25.2891 132.586 24.8672ZM135.906 28.2344C135.906 27.9896 135.982 27.7839 136.133 27.6172C136.289 27.4453 136.513 27.3594 136.805 27.3594C137.096 27.3594 137.318 27.4453 137.469 27.6172C137.625 27.7839 137.703 27.9896 137.703 28.2344C137.703 28.474 137.625 28.6771 137.469 28.8438C137.318 29.0104 137.096 29.0938 136.805 29.0938C136.513 29.0938 136.289 29.0104 136.133 28.8438C135.982 28.6771 135.906 28.474 135.906 28.2344ZM140.141 20.5469H141.594V30.0078C141.594 30.5234 141.51 30.9609 141.344 31.3203C141.182 31.6797 140.938 31.9505 140.609 32.1328C140.286 32.3203 139.878 32.4141 139.383 32.4141C139.253 32.4141 139.102 32.401 138.93 32.375C138.753 32.349 138.604 32.3177 138.484 32.2812L138.492 31.1172C138.591 31.138 138.703 31.1536 138.828 31.1641C138.953 31.1797 139.062 31.1875 139.156 31.1875C139.37 31.1875 139.549 31.1484 139.695 31.0703C139.841 30.9922 139.951 30.8672 140.023 30.6953C140.102 30.5234 140.141 30.2943 140.141 30.0078V20.5469ZM139.992 18.3047C139.992 18.0703 140.065 17.8724 140.211 17.7109C140.357 17.5495 140.568 17.4688 140.844 17.4688C141.125 17.4688 141.339 17.5495 141.484 17.7109C141.63 17.8724 141.703 18.0703 141.703 18.3047C141.703 18.5286 141.63 18.7214 141.484 18.8828C141.339 19.0391 141.125 19.1172 140.844 19.1172C140.568 19.1172 140.357 19.0391 140.211 18.8828C140.065 18.7214 139.992 18.5286 139.992 18.3047ZM145.375 22.1719V32.25H143.922V20.5469H145.25L145.375 22.1719ZM151.07 24.7031V24.8672C151.07 25.4818 150.997 26.0521 150.852 26.5781C150.706 27.099 150.492 27.5521 150.211 27.9375C149.935 28.3229 149.594 28.6224 149.188 28.8359C148.781 29.0495 148.315 29.1562 147.789 29.1562C147.253 29.1562 146.779 29.0677 146.367 28.8906C145.956 28.7135 145.607 28.4557 145.32 28.1172C145.034 27.7786 144.805 27.3724 144.633 26.8984C144.466 26.4245 144.352 25.8906 144.289 25.2969V24.4219C144.352 23.7969 144.469 23.237 144.641 22.7422C144.812 22.2474 145.039 21.8255 145.32 21.4766C145.607 21.1224 145.953 20.8542 146.359 20.6719C146.766 20.4844 147.234 20.3906 147.766 20.3906C148.297 20.3906 148.768 20.4948 149.18 20.7031C149.591 20.9062 149.938 21.1979 150.219 21.5781C150.5 21.9583 150.711 22.4141 150.852 22.9453C150.997 23.4714 151.07 24.0573 151.07 24.7031ZM149.617 24.8672V24.7031C149.617 24.2812 149.573 23.8854 149.484 23.5156C149.396 23.1406 149.258 22.8125 149.07 22.5312C148.888 22.2448 148.654 22.0208 148.367 21.8594C148.081 21.6927 147.74 21.6094 147.344 21.6094C146.979 21.6094 146.661 21.6719 146.391 21.7969C146.125 21.9219 145.898 22.0911 145.711 22.3047C145.523 22.513 145.37 22.7526 145.25 23.0234C145.135 23.2891 145.049 23.5651 144.992 23.8516V25.875C145.096 26.2396 145.242 26.5833 145.43 26.9062C145.617 27.224 145.867 27.4818 146.18 27.6797C146.492 27.8724 146.885 27.9688 147.359 27.9688C147.75 27.9688 148.086 27.888 148.367 27.7266C148.654 27.5599 148.888 27.3333 149.07 27.0469C149.258 26.7604 149.396 26.4323 149.484 26.0625C149.573 25.6875 149.617 25.2891 149.617 24.8672ZM158.391 20.5469H159.703V28.8203C159.703 29.5651 159.552 30.2005 159.25 30.7266C158.948 31.2526 158.526 31.651 157.984 31.9219C157.448 32.1979 156.828 32.3359 156.125 32.3359C155.833 32.3359 155.49 32.2891 155.094 32.1953C154.703 32.1068 154.318 31.9531 153.938 31.7344C153.562 31.5208 153.247 31.2318 152.992 30.8672L153.75 30.0078C154.104 30.4349 154.474 30.7318 154.859 30.8984C155.25 31.0651 155.635 31.1484 156.016 31.1484C156.474 31.1484 156.87 31.0625 157.203 30.8906C157.536 30.7188 157.794 30.4635 157.977 30.125C158.164 29.7917 158.258 29.3802 158.258 28.8906V22.4062L158.391 20.5469ZM152.57 24.8672V24.7031C152.57 24.0573 152.646 23.4714 152.797 22.9453C152.953 22.4141 153.174 21.9583 153.461 21.5781C153.753 21.1979 154.104 20.9062 154.516 20.7031C154.927 20.4948 155.391 20.3906 155.906 20.3906C156.438 20.3906 156.901 20.4844 157.297 20.6719C157.698 20.8542 158.036 21.1224 158.312 21.4766C158.594 21.8255 158.815 22.2474 158.977 22.7422C159.138 23.237 159.25 23.7969 159.312 24.4219V25.1406C159.255 25.7604 159.143 26.3177 158.977 26.8125C158.815 27.3073 158.594 27.7292 158.312 28.0781C158.036 28.4271 157.698 28.6953 157.297 28.8828C156.896 29.0651 156.427 29.1562 155.891 29.1562C155.385 29.1562 154.927 29.0495 154.516 28.8359C154.109 28.6224 153.76 28.3229 153.469 27.9375C153.177 27.5521 152.953 27.099 152.797 26.5781C152.646 26.0521 152.57 25.4818 152.57 24.8672ZM154.016 24.7031V24.8672C154.016 25.2891 154.057 25.6849 154.141 26.0547C154.229 26.4245 154.362 26.75 154.539 27.0312C154.721 27.3125 154.953 27.5339 155.234 27.6953C155.516 27.8516 155.852 27.9297 156.242 27.9297C156.721 27.9297 157.117 27.8281 157.43 27.625C157.742 27.4219 157.99 27.1536 158.172 26.8203C158.359 26.487 158.505 26.125 158.609 25.7344V23.8516C158.552 23.5651 158.464 23.2891 158.344 23.0234C158.229 22.7526 158.078 22.513 157.891 22.3047C157.708 22.0911 157.482 21.9219 157.211 21.7969C156.94 21.6719 156.622 21.6094 156.258 21.6094C155.862 21.6094 155.521 21.6927 155.234 21.8594C154.953 22.0208 154.721 22.2448 154.539 22.5312C154.362 22.8125 154.229 23.1406 154.141 23.5156C154.057 23.8854 154.016 24.2812 154.016 24.7031Z" fill="#111113" fill-opacity="0.6"/>
</svg>
