<svg width="48" height="48" viewBox="0 0 48 48" fill="none" xmlns="http://www.w3.org/2000/svg">
<circle cx="24" cy="24" r="24" fill="#0DAC56" fill-opacity="0.12"/>
<path d="M23.7654 13.127C17.9025 13.127 13.125 17.9045 13.125 23.7673C13.125 29.6302 17.9025 34.4077 23.7654 34.4077C29.6283 34.4077 34.4058 29.6302 34.4058 23.7673C34.4058 17.9045 29.6283 13.127 23.7654 13.127ZM28.8515 21.3201L22.8184 27.3532C22.6694 27.5021 22.4673 27.5872 22.2545 27.5872C22.0417 27.5872 21.8395 27.5021 21.6905 27.3532L18.6793 24.3419C18.3707 24.0334 18.3707 23.5226 18.6793 23.214C18.9879 22.9055 19.4986 22.9055 19.8072 23.214L22.2545 25.6613L27.7236 20.1922C28.0322 19.8836 28.5429 19.8836 28.8515 20.1922C29.1601 20.5007 29.1601 21.0008 28.8515 21.3201Z" fill="#0DAC56"/>
</svg>
