<svg width="20" height="20" viewBox="0 0 20 20" fill="none" xmlns="http://www.w3.org/2000/svg">
<g id="material-symbols:visibility-rounded">
<path id="Vector" d="M10 13.3335C11.0417 13.3335 11.9272 12.9691 12.6567 12.2402C13.3861 11.5113 13.7506 10.6257 13.75 9.5835C13.75 8.54183 13.3856 7.65655 12.6567 6.92766C11.9278 6.19877 11.0422 5.83405 10 5.8335C8.95833 5.8335 8.07306 6.19822 7.34417 6.92766C6.61528 7.65711 6.25056 8.54238 6.25 9.5835C6.25 10.6252 6.61472 11.5107 7.34417 12.2402C8.07361 12.9696 8.95889 13.3341 10 13.3335ZM10 11.8335C9.375 11.8335 8.84389 11.6146 8.40667 11.1768C7.96944 10.7391 7.75056 10.2079 7.75 9.5835C7.75 8.9585 7.96889 8.42739 8.40667 7.99016C8.84444 7.55294 9.37556 7.33405 10 7.3335C10.625 7.3335 11.1564 7.55239 11.5942 7.99016C12.0319 8.42794 12.2506 8.95905 12.25 9.5835C12.25 10.2085 12.0314 10.7399 11.5942 11.1777C11.1569 11.6154 10.6256 11.8341 10 11.8335ZM10 15.8335C8.13889 15.8335 6.44083 15.3335 4.90583 14.3335C3.37083 13.3335 2.15917 12.0141 1.27083 10.3752C1.20139 10.2502 1.14944 10.1218 1.115 9.99016C1.08056 9.8585 1.06306 9.72294 1.0625 9.5835C1.0625 9.44461 1.08 9.30905 1.115 9.17683C1.15 9.04461 1.20194 8.91627 1.27083 8.79183C2.15972 7.15294 3.37167 5.8335 4.90667 4.8335C6.44167 3.8335 8.13944 3.3335 10 3.3335C11.8611 3.3335 13.5592 3.8335 15.0942 4.8335C16.6292 5.8335 17.8408 7.15294 18.7292 8.79183C18.7986 8.91683 18.8508 9.04544 18.8858 9.17766C18.9208 9.30988 18.9381 9.44516 18.9375 9.5835C18.9375 9.72238 18.9203 9.85794 18.8858 9.99016C18.8514 10.1224 18.7992 10.2507 18.7292 10.3752C17.8403 12.0141 16.6286 13.3335 15.0942 14.3335C13.5597 15.3335 11.8617 15.8335 10 15.8335Z" fill="#0061F6"/>
</g>
</svg>
