<svg width="24" height="25" viewBox="0 0 24 25" fill="none" xmlns="http://www.w3.org/2000/svg">
<path d="M12 16.335C13.25 16.335 14.3125 15.8975 15.1875 15.0225C16.0625 14.1475 16.5 13.085 16.5 11.835C16.5 10.585 16.0625 9.52246 15.1875 8.64746C14.3125 7.77246 13.25 7.33496 12 7.33496C10.75 7.33496 9.6875 7.77246 8.8125 8.64746C7.9375 9.52246 7.5 10.585 7.5 11.835C7.5 13.085 7.9375 14.1475 8.8125 15.0225C9.6875 15.8975 10.75 16.335 12 16.335ZM12 14.535C11.25 14.535 10.6125 14.2725 10.0875 13.7475C9.5625 13.2225 9.3 12.585 9.3 11.835C9.3 11.085 9.5625 10.4475 10.0875 9.92246C10.6125 9.39746 11.25 9.13496 12 9.13496C12.75 9.13496 13.3875 9.39746 13.9125 9.92246C14.4375 10.4475 14.7 11.085 14.7 11.835C14.7 12.585 14.4375 13.2225 13.9125 13.7475C13.3875 14.2725 12.75 14.535 12 14.535ZM12 19.335C9.56667 19.335 7.35 18.6558 5.35 17.2975C3.35 15.9391 1.9 14.1183 1 11.835C1.9 9.55163 3.35 7.73079 5.35 6.37246C7.35 5.01413 9.56667 4.33496 12 4.33496C14.4333 4.33496 16.65 5.01413 18.65 6.37246C20.65 7.73079 22.1 9.55163 23 11.835C22.1 14.1183 20.65 15.9391 18.65 17.2975C16.65 18.6558 14.4333 19.335 12 19.335Z" fill="#707071"/>
</svg>
