<svg width="68" height="65" viewBox="0 0 68 65" fill="none" xmlns="http://www.w3.org/2000/svg">
<path d="M67.5217 31.5967V47.0147L54.1712 39.3057L44.3947 33.6642L40.8208 31.5967L27.4704 23.8877L21.2678 20.3138L14.12 16.1787L0.769531 8.46973L3.39827 6.96337L14.12 0.760742L24.8417 6.96337L27.4704 8.46973L40.8208 16.1787L47.9686 20.3138L54.1712 23.8877L67.5217 31.5967Z" fill="white"/>
<path d="M67.52 47.0147L54.1696 54.6941L44.3931 60.3355L40.8192 62.4031L37.2453 60.3355L27.4688 54.6941L40.8192 47.0147V46.9851L67.52 31.5967V47.0147Z" fill="#FF4A1A"/>
<path d="M27.4704 25.5801L14.12 33.2595V64.0955L6.97216 59.9604L0.769531 56.3865V10.1621L14.12 17.8711L17.6939 19.9386L27.4704 25.5801Z" fill="#FFCE48"/>
<path d="M27.4715 56.3867L21.2689 59.9606L14.1211 64.0957V48.6777L27.4715 56.3867Z" fill="#FFCE48"/>
</svg>
